/* XPM */
static char * wall_xpm[] = {
"16 16 6 1",
" 	c None",
".	c #FFE0E0",
"+	c #FF4040",
"@	c #D40000",
"#	c #6A0000",
"$	c #9F0000",
"...............+",
".++++++@@@@@@@@#",
".++@@@@@@@@@@@@#",
".+@@@@@@@@@@@@@#",
".+@@@@@@@@@@@@@#",
".+@@@@@@@@@@@@@#",
".+@@@@@@@@@@@@@#",
".@@@@@@@@@@@@@@#",
".@@@@@@@@@@@@@@#",
".@@@@@@@@@@@@@$#",
".@@@@@@@@@@@@@$#",
".@@@@@@@@@@@@@$#",
".@@@@@@@@@@@@@$#",
".@@@@@@@@@@@@$$#",
".@@@@@@@@$$$$$$#",
"+###############"};