/* XPM */
static char * pixmap[] = {
/* width height num_colors chars_per_pixel */
"64 64 3 1",
/* colors */
"  c #FFFFFF",
"! c #FF0000",
"# c #000000",
/* pixels */
"!!!!!!!!!!!!!!!##################################!!!!!!!!!!!!!!!",
"!!!!!!!!!!!!!!####################################!!!!!!!!!!!!!!",
"!!!!!!!!!!!!!###                                ###!!!!!!!!!!!!!",
"!!!!!!!!!!!!!##                                  ##!!!!!!!!!!!!!",
"!!!!!!!!!!!!!##                                  ##!!!!!!!!!!!!!",
"!!!!!!!!!!!!!##                                  ##!!!!!!!!!!!!!",
"!!!!!!!!!!!!!##                                  ##!!!!!!!!!!!!!",
"!!!!!!!!!!!!!##                                  ##!!!!!!!!!!!!!",
"!!!!!!!!!!!!!##                                 ###!!!!!!!!!!!!!",
"!!!!!!!!!!!!!##         ##########################!!!!!!!!!!!!!!",
"!!!!!!!!!!!!!##         #########################!!!!!!!!!!!!!!!",
"!!!!!!!!!!!!!##         ##!!!!!!!!!!!!!!!!!!!!!!!!!!!!!!!!!!!!!!",
"!!!!!!!!!!!!!##         ##!!!!!!!!!!!!!!!!!!!!!!!!!!!!!!!!!!!!!!",
"!!!!!!!!!!!!!##         ##!!!!!!!!!!!!!!!!!!!!!!!!!!!!!!!!!!!!!!",
"!!!!!!!!!!!!!##         ##!!!!!!!!!!!!!!!!!!!!!!!!!!!!!!!!!!!!!!",
"!!!!!!!!!!!!!##         ##!!!!!!!!!!!!!!!!!!!!!!!!!!!!!!!!!!!!!!",
"!!!!!!!!!!!!!##         ##!!!!!!!!!!!!!!!!!!!!!!!!!!!!!!!!!!!!!!",
"!!!!!!!!!!!!!##         ##!!!!!!!!!!!!!!!!!!!!!!!!!!!!!!!!!!!!!!",
"!!!!!!!!!!!!!##         ##!!!!!!!!!!!!!!!!!!!!!!!!!!!!!!!!!!!!!!",
"!!!!!!!!!!!!!##         ##!!!!!!!!!!!!!!!!!!!!!!!!!!!!!!!!!!!!!!",
"!!!!!!!!!!!!!##         ##!!!!!!!!!!!!!!!!!!!!!!!!!!!!!!!!!!!!!!",
"!!!!!!!!!!!!!##         ##!!!!!!!!!!!!!!!!!!!!!!!!!!!!!!!!!!!!!!",
"!!!!!!!!!!!!!##         ##!!!!!!!!!!!!!!!!!!!!!!!!!!!!!!!!!!!!!!",
"!!!!!!!!!!!!!##         ##!!!!!!!!!!!!!!!!!!!!!!!!!!!!!!!!!!!!!!",
"!!!!!!!!!!!!!##         ##!!!!!!!!!!!!!!!!!!!!!!!!!!!!!!!!!!!!!!",
"!!!!!!!!!!!!!##         #####################!!!!!!!!!!!!!!!!!!!",
"!!!!!!!!!!!!!##         ######################!!!!!!!!!!!!!!!!!!",
"!!!!!!!!!!!!!##                             ###!!!!!!!!!!!!!!!!!",
"!!!!!!!!!!!!!##                              ##!!!!!!!!!!!!!!!!!",
"!!!!!!!!!!!!!##                              ##!!!!!!!!!!!!!!!!!",
"!!!!!!!!!!!!!##                              ##!!!!!!!!!!!!!!!!!",
"!!!!!!!!!!!!!##                              ##!!!!!!!!!!!!!!!!!",
"!!!!!!!!!!!!!##                              ##!!!!!!!!!!!!!!!!!",
"!!!!!!!!!!!!!##                             ###!!!!!!!!!!!!!!!!!",
"!!!!!!!!!!!!!##         ######################!!!!!!!!!!!!!!!!!!",
"!!!!!!!!!!!!!##         #####################!!!!!!!!!!!!!!!!!!!",
"!!!!!!!!!!!!!##         ##!!!!!!!!!!!!!!!!!!!!!!!!!!!!!!!!!!!!!!",
"!!!!!!!!!!!!!##         ##!!!!!!!!!!!!!!!!!!!!!!!!!!!!!!!!!!!!!!",
"!!!!!!!!!!!!!##         ##!!!!!!!!!!!!!!!!!!!!!!!!!!!!!!!!!!!!!!",
"!!!!!!!!!!!!!##         ##!!!!!!!!!!!!!!!!!!!!!!!!!!!!!!!!!!!!!!",
"!!!!!!!!!!!!!##         ##!!!!!!!!!!!!!!!!!!!!!!!!!!!!!!!!!!!!!!",
"!!!!!!!!!!!!!##         ##!!!!!!!!!!!!!!!!!!!!!!!!!!!!!!!!!!!!!!",
"!!!!!!!!!!!!!##         ##!!!!!!!!!!!!!!!!!!!!!!!!!!!!!!!!!!!!!!",
"!!!!!!!!!!!!!##         ##!!!!!!!!!!!!!!!!!!!!!!!!!!!!!!!!!!!!!!",
"!!!!!!!!!!!!!##         ##!!!!!!!!!!!!!!!!!!!!!!!!!!!!!!!!!!!!!!",
"!!!!!!!!!!!!!##         ##!!!!!!!!!!!!!!!!!!!!!!!!!!!!!!!!!!!!!!",
"!!!!!!!!!!!!!##         ##!!!!!!!!!!!!!!!!!!!!!!!!!!!!!!!!!!!!!!",
"!!!!!!!!!!!!!##         ##!!!!!!!!!!!!!!!!!!!!!!!!!!!!!!!!!!!!!!",
"!!!!!!!!!!!!!##         ##!!!!!!!!!!!!!!!!!!!!!!!!!!!!!!!!!!!!!!",
"!!!!!!!!!!!!!##         ##!!!!!!!!!!!!!!!!!!!!!!!!!!!!!!!!!!!!!!",
"!!!!!!!!!!!!!##         ##!!!!!!!!!!!!!!!!!!!!!!!!!!!!!!!!!!!!!!",
"!!!!!!!!!!!!!##         ##!!!!!!!!!!!!!!!!!!!!!!!!!!!!!!!!!!!!!!",
"!!!!!!!!!!!!!##         ##!!!!!!!!!!!!!!!!!!!!!!!!!!!!!!!!!!!!!!",
"!!!!!!!!!!!!!##         ##!!!!!!!!!!!!!!!!!!!!!!!!!!!!!!!!!!!!!!",
"!!!!!!!!!!!!!##         #########################!!!!!!!!!!!!!!!",
"!!!!!!!!!!!!!##         ##########################!!!!!!!!!!!!!!",
"!!!!!!!!!!!!!##                                 ###!!!!!!!!!!!!!",
"!!!!!!!!!!!!!##                                  ##!!!!!!!!!!!!!",
"!!!!!!!!!!!!!##                                  ##!!!!!!!!!!!!!",
"!!!!!!!!!!!!!##                                  ##!!!!!!!!!!!!!",
"!!!!!!!!!!!!!##                                  ##!!!!!!!!!!!!!",
"!!!!!!!!!!!!!##                                  ##!!!!!!!!!!!!!",
"!!!!!!!!!!!!!###                                ###!!!!!!!!!!!!!",
"!!!!!!!!!!!!!!####################################!!!!!!!!!!!!!!"
};