/* XPM */
static char * pixmap[] = {
/* width height num_colors chars_per_pixel */
"64 64 3 1",
/* colors */
"  c #FFFFFF",
"! c #7F00FF",
"# c #000000",
/* pixels */
"!!!!!!!!!!!!!!!!!!!!!!!!!!!!!!!!!!!!!!!!!!!!!!!!!!!!!!!!!!!!!!!!",
"!!!!!!!!!###########!!!!!!!!!!!!!!!!!!!!!!!!!#########!!!!!!!!!!",
"!!!!!!!###         ###!!!!!!!!!!!!!!!!!!!!!!##       ##!!!!!!!!!",
"!!!!!!!#             ##!!!!!!!!!!!!!!!!!!!!!#         #!!!!!!!!!",
"!!!!!!!#              ##!!!!!!!!!!!!!!!!!!!!#         #!!!!!!!!!",
"!!!!!!!#               #!!!!!!!!!!!!!!!!!!!!#         #!!!!!!!!!",
"!!!!!!!#               ##!!!!!!!!!!!!!!!!!!!#         #!!!!!!!!!",
"!!!!!!!#                #!!!!!!!!!!!!!!!!!!!#         #!!!!!!!!!",
"!!!!!!!#                ##!!!!!!!!!!!!!!!!!!#         #!!!!!!!!!",
"!!!!!!!#                 #!!!!!!!!!!!!!!!!!!#         #!!!!!!!!!",
"!!!!!!!#                 ##!!!!!!!!!!!!!!!!!#         #!!!!!!!!!",
"!!!!!!!#                  #!!!!!!!!!!!!!!!!!#         #!!!!!!!!!",
"!!!!!!!#         #        ##!!!!!!!!!!!!!!!!#         #!!!!!!!!!",
"!!!!!!!#         #         #!!!!!!!!!!!!!!!!#         #!!!!!!!!!",
"!!!!!!!#         ##        ##!!!!!!!!!!!!!!!#         #!!!!!!!!!",
"!!!!!!!#         ##         #!!!!!!!!!!!!!!!#         #!!!!!!!!!",
"!!!!!!!#         ##         ##!!!!!!!!!!!!!!#         #!!!!!!!!!",
"!!!!!!!#         ###         #!!!!!!!!!!!!!!#         #!!!!!!!!!",
"!!!!!!!#         #!#         ##!!!!!!!!!!!!!#         #!!!!!!!!!",
"!!!!!!!#         #!##         #!!!!!!!!!!!!!#         #!!!!!!!!!",
"!!!!!!!#         #!!#         #!!!!!!!!!!!!!#         #!!!!!!!!!",
"!!!!!!!#         #!!##        ##!!!!!!!!!!!!#         #!!!!!!!!!",
"!!!!!!!#         #!!!#         #!!!!!!!!!!!!#         #!!!!!!!!!",
"!!!!!!!#         #!!!##        ##!!!!!!!!!!!#         #!!!!!!!!!",
"!!!!!!!#         #!!!!#         #!!!!!!!!!!!#         #!!!!!!!!!",
"!!!!!!!#         #!!!!##        ##!!!!!!!!!!#         #!!!!!!!!!",
"!!!!!!!#         #!!!!!#         #!!!!!!!!!!#         #!!!!!!!!!",
"!!!!!!!#         #!!!!!##        ##!!!!!!!!!#         #!!!!!!!!!",
"!!!!!!!#         #!!!!!!#         #!!!!!!!!!#         #!!!!!!!!!",
"!!!!!!!#         #!!!!!!##        ##!!!!!!!!#         #!!!!!!!!!",
"!!!!!!!#         #!!!!!!!#         #!!!!!!!!#         #!!!!!!!!!",
"!!!!!!!#         #!!!!!!!##        ##!!!!!!!#         #!!!!!!!!!",
"!!!!!!!#         #!!!!!!!!#         #!!!!!!!#         #!!!!!!!!!",
"!!!!!!!#         #!!!!!!!!##        ##!!!!!!#         #!!!!!!!!!",
"!!!!!!!#         #!!!!!!!!!#         #!!!!!!#         #!!!!!!!!!",
"!!!!!!!#         #!!!!!!!!!##        ##!!!!!#         #!!!!!!!!!",
"!!!!!!!#         #!!!!!!!!!!#         #!!!!!#         #!!!!!!!!!",
"!!!!!!!#         #!!!!!!!!!!##        ##!!!!#         #!!!!!!!!!",
"!!!!!!!#         #!!!!!!!!!!!#         #!!!!#         #!!!!!!!!!",
"!!!!!!!#         #!!!!!!!!!!!##        ##!!!#         #!!!!!!!!!",
"!!!!!!!#         #!!!!!!!!!!!!#         #!!!#         #!!!!!!!!!",
"!!!!!!!#         #!!!!!!!!!!!!##        ##!!#         #!!!!!!!!!",
"!!!!!!!#         #!!!!!!!!!!!!!#         #!!#         #!!!!!!!!!",
"!!!!!!!#         #!!!!!!!!!!!!!##        ##!#         #!!!!!!!!!",
"!!!!!!!#         #!!!!!!!!!!!!!!#         #!#         #!!!!!!!!!",
"!!!!!!!#         #!!!!!!!!!!!!!!##        ###         #!!!!!!!!!",
"!!!!!!!#         #!!!!!!!!!!!!!!!#         ##         #!!!!!!!!!",
"!!!!!!!#         #!!!!!!!!!!!!!!!##        ##         #!!!!!!!!!",
"!!!!!!!#         #!!!!!!!!!!!!!!!!#         #         #!!!!!!!!!",
"!!!!!!!#         #!!!!!!!!!!!!!!!!##        #         #!!!!!!!!!",
"!!!!!!!#         #!!!!!!!!!!!!!!!!!#                  #!!!!!!!!!",
"!!!!!!!#         #!!!!!!!!!!!!!!!!!##                 #!!!!!!!!!",
"!!!!!!!#         #!!!!!!!!!!!!!!!!!!#                 #!!!!!!!!!",
"!!!!!!!#         #!!!!!!!!!!!!!!!!!!##                #!!!!!!!!!",
"!!!!!!!#         #!!!!!!!!!!!!!!!!!!!#                #!!!!!!!!!",
"!!!!!!!#         #!!!!!!!!!!!!!!!!!!!##               #!!!!!!!!!",
"!!!!!!!#         #!!!!!!!!!!!!!!!!!!!!#               #!!!!!!!!!",
"!!!!!!!#         #!!!!!!!!!!!!!!!!!!!!##              #!!!!!!!!!",
"!!!!!!!#         #!!!!!!!!!!!!!!!!!!!!!#              #!!!!!!!!!",
"!!!!!!!#         #!!!!!!!!!!!!!!!!!!!!!##             #!!!!!!!!!",
"!!!!!!!#         #!!!!!!!!!!!!!!!!!!!!!!##            #!!!!!!!!!",
"!!!!!!!#         #!!!!!!!!!!!!!!!!!!!!!!!##          ##!!!!!!!!!",
"!!!!!!!##       ##!!!!!!!!!!!!!!!!!!!!!!!!##        ##!!!!!!!!!!",
"!!!!!!!!#########!!!!!!!!!!!!!!!!!!!!!!!!!!##########!!!!!!!!!!!"
};